<?xml version="1.0" standalone="no"?>
<svg xmlns:xlink="http://www.w3.org/1999/xlink" id="wave" style="transform:rotate(180deg); transition: 0.3s" viewBox="0 0 1440 130" version="1.1" xmlns="http://www.w3.org/2000/svg"><defs><linearGradient id="sw-gradient-0" x1="0" x2="0" y1="1" y2="0"><stop stop-color="rgba(20, 33, 61, 1)" offset="0%"/><stop stop-color="rgba(20, 33, 61, 1)" offset="100%"/></linearGradient></defs><path style="transform:translate(0, 0px); opacity:1" fill="url(#sw-gradient-0)" d="M0,65L34.3,69.3C68.6,74,137,82,206,91C274.3,100,343,108,411,104C480,100,549,82,617,78C685.7,74,754,82,823,82.3C891.4,82,960,74,1029,65C1097.1,56,1166,48,1234,52C1302.9,56,1371,74,1440,78C1508.6,82,1577,74,1646,60.7C1714.3,48,1783,30,1851,34.7C1920,39,1989,65,2057,65C2125.7,65,2194,39,2263,26C2331.4,13,2400,13,2469,17.3C2537.1,22,2606,30,2674,36.8C2742.9,43,2811,48,2880,56.3C2948.6,65,3017,78,3086,71.5C3154.3,65,3223,39,3291,26C3360,13,3429,13,3497,13C3565.7,13,3634,13,3703,10.8C3771.4,9,3840,4,3909,8.7C3977.1,13,4046,26,4114,26C4182.9,26,4251,13,4320,23.8C4388.6,35,4457,69,4526,71.5C4594.3,74,4663,43,4731,26C4800,9,4869,4,4903,2.2L4937.1,0L4937.1,130L4902.9,130C4868.6,130,4800,130,4731,130C4662.9,130,4594,130,4526,130C4457.1,130,4389,130,4320,130C4251.4,130,4183,130,4114,130C4045.7,130,3977,130,3909,130C3840,130,3771,130,3703,130C3634.3,130,3566,130,3497,130C3428.6,130,3360,130,3291,130C3222.9,130,3154,130,3086,130C3017.1,130,2949,130,2880,130C2811.4,130,2743,130,2674,130C2605.7,130,2537,130,2469,130C2400,130,2331,130,2263,130C2194.3,130,2126,130,2057,130C1988.6,130,1920,130,1851,130C1782.9,130,1714,130,1646,130C1577.1,130,1509,130,1440,130C1371.4,130,1303,130,1234,130C1165.7,130,1097,130,1029,130C960,130,891,130,823,130C754.3,130,686,130,617,130C548.6,130,480,130,411,130C342.9,130,274,130,206,130C137.1,130,69,130,34,130L0,130Z"/></svg>